<?xml version="1.0" encoding="utf-8"?>
<!-- Generator: Adobe Illustrator 20.0.0, SVG Export Plug-In . SVG Version: 6.00 Build 0)  -->
<svg version="1.1" id="Layer_1" xmlns="http://www.w3.org/2000/svg" xmlns:xlink="http://www.w3.org/1999/xlink" x="0px" y="0px"
	 viewBox="0 0 561.5 188.4" style="enable-background:new 0 0 561.5 188.4;" xml:space="preserve">
<style type="text/css">
	.st0{fill:#ED1C24;}
	.st1{fill:#E91D26;}
	.st2{fill:#F5EC3E;}
	.st3{fill:#FFD42B;}
	.st4{fill:#DF9D2D;}
	.st5{fill:#131718;}
</style>
<g>
	<path class="st0" d="M280.5,15.7L280.5,15.7L280.5,15.7L280.5,15.7L197.1,9c0,0-11.3,5.6-10.9,18.8l2.4,60.7l1.1,29.4
		c0,0,1,14.9,16.6,18.5l7,1.5l61.9,13.3c3.3,0.6,5.3,0.5,5.3,0.5L280.5,15.7L280.5,15.7z"/>
	<path class="st0" d="M363.9,9l-42.9,3.4l-40.4,3.2h0h0l0,136c0,0,2.1,0.1,5.4-0.5l61.8-13.2l7.1-1.5c15.5-3.6,16.6-18.5,16.6-18.5
		l1.1-29.4l2.4-60.7C374.8,14.5,364.2,9.2,363.9,9"/>
</g>
<polygon class="st1" points="280.5,14.2 280.5,14.2 280.5,14.2 "/>
<path class="st0" d="M280.5,14.2l40.4-3.2l42.9-3.4h0c-4.3-2.4-11.5-2.7-11.5-2.7S282.6,0.1,280.2,0h-0.9
	c-43.7,2.7-68.1,4.3-68.1,4.3s-8.5,0.4-14.1,3.2L280.5,14.2L280.5,14.2L280.5,14.2z"/>
<path class="st2" d="M280.5,14.2L280.5,14.2L280.5,14.2L280.5,14.2l-83.4-6.7c0,0-11.3,5.6-10.9,18.8l2.4,60.7l1.1,29.4
	c0,0,1,14.9,16.6,18.5l7,1.5l61.9,13.3c3.3,0.6,5.3,0.5,5.3,0.5L280.5,14.2L280.5,14.2z"/>
<path class="st3" d="M363.9,7.5l-42.9,3.4l-40.4,3.2h0h0l0,136c0,0,2.1,0.1,5.4-0.5l61.8-13.2l7.1-1.5c15.5-3.6,16.6-18.5,16.6-18.5
	l1.1-29.4l2.4-60.7C374.8,13,364.2,7.7,363.9,7.5"/>
<path class="st4" d="M211.1,101.7l17,37.8c0,0-17.1-3.6-21.9-4.6c-13.8-3.2-16-15.9-16-15.9L211.1,101.7z"/>
<g>
	<path class="st0" d="M67.7,57.5l-65,22c0,0-4.4,6.5,0.8,18.6l44.5,79c0,0,5.5,11.8,20.1,11.2l60-7.4c4-0.5,5.2-1.2,5.2-1.2
		L67.7,57.5L67.7,57.5z"/>
	<path class="st0" d="M209.9,99l-37.3-83.5c-5.6-9.5-15.4-10.4-16-10.4L155,6L67.7,57.5l65.5,122.3c1.5-0.5,5.3-3.1,5.3-3.1
		c17.5-12.5,68.6-53.6,68.6-53.6C219,113.8,209.9,99,209.9,99"/>
</g>
<path class="st4" d="M351.5,99l-17.8,40.3c0,0,16.6-3.5,20.7-4.4c7.6-1.5,11.5-5.8,13.4-8.7c2.4-3.8,3.1-7,3.1-7L351.5,99z"/>
<path class="st5" d="M273.3,36.8l-3.1-0.3c2.2,0.7,1,3.5,1,3.5l-25.7,46.5l-1.2,34.9l3.4,0.7l1.2-34.7l25.7-46.5
	C274.6,40.9,276.1,37.2,273.3,36.8"/>
<path class="st5" d="M225.9,35.2l5.7,16.3c1.3,3.8,2.7,8.6,4,12.9l0.1,0c0.6-1.3,1.2-2.8,1.7-4.2c-0.9-2.8-1.7-5.6-2.5-8l-5.7-16.3
	c0,0-0.8-4.2-4.5-4.5l-2.6-0.3C225,31.9,225.9,35.2,225.9,35.2"/>
<path class="st0" d="M271.2,40c0,0,1.3-2.9-1-3.5c-0.1,0-0.3-0.1-0.4-0.1l-18.1-1.9c-3.1-0.4-4.3,2.9-4.3,2.9l-6.6,15.2
	c-1,2.3-2.1,5-3.3,7.7c-0.6,1.4-1.2,2.8-1.7,4.2l-0.1,0c-1.4-4.3-2.8-9.1-4-12.9l-5.7-16.3c0,0-0.9-3.3-3.7-4
	c-0.1,0-0.3-0.1-0.4-0.1L203.7,29c-3.2-0.4-1.6,3.2-1.6,3.2l22.2,51.5l-1,27c0,0,0.4,6.2,6.5,7.7l14.4,2.9l1.2-34.9L271.2,40z"/>
<path class="st5" d="M317.5,115l1.8-60.5l-3.6,0.4l-1.9,60.7c0,0,0.5,6.5,7.7,5.7l3.3-0.6C317.8,121.1,317.5,115,317.5,115"/>
<path class="st5" d="M297.3,53.2l1-14.3c0.2-2.4,1.7-3.1,2.7-3.3l-2.9,0.3c0,0-3.1,0.1-3.3,3.1l-1,14.5c0,0-0.2,3.4,2.8,3.4l3.6-0.4
	C297.1,56.6,297.3,53.2,297.3,53.2"/>
<path class="st0" d="M301.7,35.6c0,0-0.3,0-0.7,0.1c-0.9,0.2-2.5,0.9-2.7,3.3l-1,14.3c0,0-0.2,3.3,2.8,3.4l0.1,0l15.6-1.7l3.6-0.4
	l-1.8,60.5c0,0,0.4,6.1,7.4,5.8l5.5-0.8l8.7-1.3l1.9-66.4l15.3-1.8c6.8-1.1,7.2-7,7.2-7l1.1-14.7L301.7,35.6z"/>
<g>
	<path class="st0" d="M558.8,79.4L558.8,79.4l-64.9-22h0l-65.4,122.1c0.3,0.1,1.9,0.8,5.1,1.2l60,7.5c14.6,0.6,20.1-11.2,20.1-11.2
		l44.5-79C563.3,85.9,559,79.6,558.8,79.4"/>
	<path class="st0" d="M406.6,6L405,5.1h0.1l0,0c0,0-10.2,0.7-16,10.5l-37.4,83.4c0,0-8.7,15.4,2.8,24c0,0,51.2,41.1,68.7,53.6
		c0,0,3.5,2.4,5.4,3l65.4-122.1L406.6,6z"/>
</g>
<path class="st3" d="M559.7,77.9L559.7,77.9l-65-22h0l-65.5,122.2c0.3,0.1,1.9,0.8,5.1,1.2l60.1,7.5c14.6,0.6,20.1-11.2,20.1-11.2
	l44.5-79C564.2,84.5,559.9,78.2,559.7,77.9"/>
<path class="st2" d="M407.3,4.5l-1.6-0.9h0.1l0,0c0,0-10.2,0.7-16.1,10.5l-37.5,83.5c0,0-8.7,15.4,2.9,24c0,0,51.2,41.2,68.7,53.6
	c0,0,3.5,2.4,5.4,3L494.7,56L407.3,4.5z"/>
<path class="st0" d="M407.3,4.5L494.7,56h0l65,22l0-0.1c-2.6-4.7-11-9.9-11-9.9l-76.6-42.7L414.7,4.8c-3.5-1.4-8.4-1.3-8.9-1.2h-0.1
	L407.3,4.5z"/>
<path class="st5" d="M464.2,61.5l-3.3-1.9c2.6,1.8,1.2,4.5,1.2,4.5l-38.3,73.6c0,0-3.1,5.3-8.5,2.2l2.7,2c5.7,3.8,9.1-2,9.1-2
	l38.1-73.6C465.4,66.3,466.8,63.3,464.2,61.5"/>
<polygon class="st5" points="385.9,118.3 389,120.4 407.4,87.3 404,85.1 "/>
<path class="st5" d="M425.2,43.5l-13.6,26.2l3.3,2.1l13.5-26.1c0,0,1.5-3.1-1.4-5l-3.3-1.9C426.6,40.7,425.2,43.5,425.2,43.5"/>
<path class="st0" d="M423.8,137.8l38.3-73.6c0,0,1.4-2.8-1.2-4.5l0,0l-15.5-8.9c-2.5-1.7-3.9,1.1-3.9,1.1l-14.5,27.7l-12.1-7.8
	l-3.3-2.1l13.6-26.2c0,0,1.4-2.8-1.5-4.7l-15.2-8.9c-2.7-1.8-4,1-4,1l-35.1,68.2c0,0-3.3,5.7,3.3,10.1l13.2,9.1l0,0L404,85.1
	l3.3,2.2l11.9,7.8L401,129.7l13.8,10c0.2,0.1,0.3,0.2,0.5,0.3C420.7,143.1,423.8,137.8,423.8,137.8"/>
<path class="st5" d="M545.7,99.4c-5.1-8.6-17.4-15.9-26.7-18.5c-17.5-4.8-34.2,1.1-41.6,17.4c-5.8,12.8-2.6,21.4,5.2,27.9
	c-5.5-6.2-7.2-14-2.2-25.1c7.4-16.4,24.3-23,41.6-17.5c10.7,3.5,18.5,9,23.1,16.4C545.1,100.1,545.7,99.4,545.7,99.4"/>
<path class="st5" d="M473.2,143.5c0,0,7.7,5.1,12.8,6.7c7.8,2.4,12.3,0.5,14.3-4.1c1.5-3.3,0.2-5.5-3.4-8.3c1.2,1.7,1.4,3.3,0.4,5.5
	c-2,4.5-6.5,6.5-14.3,4.1c-5.1-1.6-12.8-6.7-12.8-6.7c-7-4.9-12,1.9-12,1.9l-6,7.3c0.9,1.1,1.8,2.1,2.7,3l6.3-7.5
	C461.3,145.4,466.2,138.7,473.2,143.5"/>
<path class="st0" d="M522,83.8c-17.3-5.6-34.2,1.1-41.6,17.5c-5,11-3.3,18.9,2.2,25.1c1.6,1.8,3.6,3.5,5.7,5l7.3,5.6
	c0.5,0.3,0.9,0.7,1.3,1c3.6,2.8,4.9,5,3.4,8.3c-2.1,4.5-6.5,6.5-14.3,4.1c-5.1-1.6-12.8-6.7-12.8-6.7c-7-4.8-12,1.9-12,1.9l-6.3,7.5
	l0,0c5.8,6.9,11.3,10.9,22.9,14.6c20.1,6.5,37.5,0.2,46.4-19.6c7.5-16.6-2.6-24.5-9.9-29.5l-6.9-4.7c-5.1-3.4-4.9-6.5-3.3-9.1
	c2.2-3.6,6.8-4.5,10.1-4c6.3,1.1,9.6,4,12.3,6.1c5.4,4.6,10.8-0.2,10.8-0.2c1.6-1.3,7.6-6.4,7.6-6.4C540.5,92.8,532.7,87.3,522,83.8
	"/>
<path class="st2" d="M66.8,56L1.7,78c0,0-4.4,6.5,0.8,18.6l44.5,79c0,0,5.5,11.8,20.1,11.2l60.1-7.4c4-0.5,5.2-1.2,5.2-1.2L66.8,56
	L66.8,56z"/>
<path class="st3" d="M209.2,97.5L171.8,14c-5.6-9.5-15.4-10.4-16-10.4l-1.6,0.9L66.9,55.9l65.6,122.3c1.5-0.5,5.3-3.1,5.3-3.1
	c17.5-12.5,68.7-53.6,68.7-53.6C218.4,112.3,209.2,97.5,209.2,97.5"/>
<path class="st0" d="M155.8,3.5L155.8,3.5c-0.1,0-5.4-0.2-9,1.2L89.4,25.3L12.8,68c0,0-7.9,4.6-11,9.9l0,0.1l65.1-22l0,0l87.3-51.5
	L155.8,3.5z"/>
<path class="st5" d="M101.3,128.3c-7.2-15.1-20.3-17-30-17.3c9.1,0.8,19.7,3.9,25.9,17c9.2,19.4,0.7,32.9-20.6,38.1
	c-12.3,3-20,2.8-30.2,0.5l0,0l0.2,0.9c5.9,1.5,19.2,3.5,34.2-1C98.8,160.9,110.5,147.8,101.3,128.3"/>
<path class="st5" d="M65,95.9c-3.8-0.2-8.8-0.7-14.8,1.6c-3.1,1.2-5.9,4.3-4.7,8.1c0.9,2.7,3.3,5.2,10.1,5.2l0.4,0
	c-4-0.7-5.7-2.7-6.4-4.9c-1.2-3.8,1.6-6.8,4.7-8c5.9-2.4,10.9-1.9,14.8-1.6c8.1,0.8,8.4-5.6,8.4-5.6c0.2-1.8,0.7-7.7,0.7-7.7
	c-1.3-0.5-2.7-0.9-4.1-1.3c0,0.1-0.5,6.9-0.7,8.7C73.4,90.3,73.1,96.7,65,95.9"/>
<path class="st0" d="M76.5,166.1c21.3-5.2,29.9-18.7,20.6-38.1c-6.2-13.1-16.9-16.2-25.9-17c-2.2-0.2-4.3-0.2-6.3-0.2l-9,0l-0.4,0
	c-6.8,0-9.3-2.5-10.1-5.2c-1.2-3.8,1.7-6.8,4.7-8.1c5.9-2.4,10.9-1.9,14.7-1.6c8.1,0.8,8.4-5.6,8.4-5.6c0.2-1.8,0.7-8.6,0.7-8.7
	c-9.7-3.2-20.4-3.5-31.8-0.7C23.9,85.4,16.1,99,23.7,115c6.6,14,17.8,18.4,31.2,18.6l10.4,0.5c6.4,0.1,9.7,1,11.4,4.6
	c2.1,4.4,0.2,8.2-8,10.3c-5.3,1.4-15.7,1.4-15.7,1.4c-9.7-0.6-7.9,7.4-7.9,7.4l1.2,8.8h0C56.5,168.9,64.2,169.1,76.5,166.1"/>
<path class="st5" d="M95.4,70.1c0,0-3.1-6,2.7-10.4l-2.5,1.5c-6.5,4.4-3.1,10.9-3.1,10.9l8.4,20l31.5,59.8l3-2.1l-31.5-59.8
	L95.4,70.1z"/>
<path class="st5" d="M178.3,106.3L157.1,62c0.7,3.1,1.6,8.5,1.9,10l0.4,3.1l15.9,33.3c4.5,10.2,10.7,4.8,10.7,4.8l2-1.7
	C186.3,112.5,181.9,114.3,178.3,106.3"/>
<path class="st5" d="M144.1,77.3c-0.8-5.5-1.5-9.7-3.2-16.7l-3.4-17.4c0,0-0.9-5.4,2-7.1l-3,1.9c-3.1,1.9-2,7.3-2,7.3l3.3,17.3
	c1.2,4.9,1.8,8.4,2.4,11.9c1.2,1,2.3,2,3.5,3.1L144.1,77.3z"/>
<path class="st5" d="M151.4,104.9l-22-16.4c-1.8-1.6-5.9-5.7-7.2-7.2l3.1,5.4l2.7,5l20.4,15.3c1.9,1.5,5.1,3.6,7.9,2.1l3-1.7
	C156.9,108.6,153.3,106.5,151.4,104.9"/>
<path class="st0" d="M198.7,102.5l-27-57.8c-3.6-6.5-7.8-12.2-9.1-14.2c0,0-3.9-6.8-10.5-2.5l-12.6,8h0c-2.8,1.7-2,7.1-2,7.1
	l3.4,17.4c1.7,7,2.4,11.2,3.2,16.7l-0.3,0.2c-1.1-1-2.3-2.1-3.5-3.1c-3.8-3.3-7.7-6.4-10.4-9.2L118,53.8c0,0-4.2-3.9-8.3-1.2
	l-11,6.7c-0.2,0.1-0.3,0.2-0.5,0.3c-5.8,4.4-2.7,10.4-2.7,10.4l8.4,20l31.5,59.8l0,0l11.2-7.9c0,0,6.1-4.8,1.9-12.3L128,91.7l-2.7-5
	l-3.1-5.4c1.3,1.5,5.4,5.6,7.2,7.2l22,16.4c1.9,1.5,5.5,3.7,7.9,2.4l0.1,0l1.4-0.8c2.5-1.8,2.3-4.8,1.5-8.6l-2.9-22.9L159,72
	c-0.4-1.5-1.2-6.9-1.9-10l21.2,44.3c3.6,8,8,6.2,9.7,5.1c0.5-0.3,0.8-0.6,0.8-0.6L198.7,102.5z"/>
</svg>
